<?xml version="1.0" standalone="no"?>
<!DOCTYPE svg PUBLIC "-//W3C//DTD SVG 20010904//EN"
 "http://www.w3.org/TR/2001/REC-SVG-20010904/DTD/svg10.dtd">
<svg version="1.0" xmlns="http://www.w3.org/2000/svg"
 width="32.000000pt" height="32.000000pt" viewBox="0 0 32.000000 32.000000"
 preserveAspectRatio="xMidYMid meet">

<g transform="translate(0.000000,32.000000) scale(0.100000,-0.100000)"
fill="#000000" stroke="none">
<path d="M5 133 c20 -81 97 -140 170 -128 57 9 105 42 126 89 28 61 26 66 -31
66 -45 0 -50 -2 -56 -27 -5 -19 -2 -30 11 -39 16 -12 14 -14 -20 -28 -46 -20
-47 -20 -92 -1 -34 14 -35 16 -18 29 13 9 16 20 11 39 -6 25 -11 27 -57 27
-51 0 -51 0 -44 -27z"/>
</g>
</svg>
